<svg width="2477" height="2475" xmlns="http://www.w3.org/2000/svg" xmlns:xlink="http://www.w3.org/1999/xlink" xml:space="preserve" overflow="hidden"><defs><clipPath id="clip0"><rect x="961" y="0" width="2477" height="2475"/></clipPath><linearGradient x1="1555.9" y1="-256.122" x2="2843.41" y2="2731.12" gradientUnits="userSpaceOnUse" spreadMethod="reflect" id="fill1"><stop offset="0" stop-color="#ECEEF0" stop-opacity="0.901961"/><stop offset="0.048" stop-color="#EBEDF0" stop-opacity="0.901961"/><stop offset="0.095" stop-color="#EBEDF1" stop-opacity="0.901961"/><stop offset="0.143" stop-color="#EBEDF1" stop-opacity="0.901961"/><stop offset="0.19" stop-color="#EBEDF2" stop-opacity="0.901961"/><stop offset="0.238" stop-color="#EAEDF2" stop-opacity="0.901961"/><stop offset="0.286" stop-color="#E9EDF3" stop-opacity="0.901961"/><stop offset="0.333" stop-color="#E9ECF3" stop-opacity="0.901961"/><stop offset="0.381" stop-color="#E8ECF4" stop-opacity="0.901961"/><stop offset="0.429" stop-color="#E7EBF4" stop-opacity="0.901961"/><stop offset="0.476" stop-color="#E6EBF4" stop-opacity="0.901961"/><stop offset="0.524" stop-color="#E5EBF5" stop-opacity="0.901961"/><stop offset="0.571" stop-color="#E4EAF5" stop-opacity="0.901961"/><stop offset="0.619" stop-color="#E3E9F5" stop-opacity="0.901961"/><stop offset="0.667" stop-color="#E1E9F6" stop-opacity="0.901961"/><stop offset="0.714" stop-color="#E0E8F6" stop-opacity="0.901961"/><stop offset="0.762" stop-color="#DEE7F6" stop-opacity="0.901961"/><stop offset="0.81" stop-color="#DDE7F6" stop-opacity="0.901961"/><stop offset="0.857" stop-color="#DBE6F6" stop-opacity="0.901961"/><stop offset="0.905" stop-color="#D9E5F6" stop-opacity="0.901961"/><stop offset="0.952" stop-color="#D7E4F6" stop-opacity="0.901961"/><stop offset="1" stop-color="#D6E4F7" stop-opacity="0.901961"/></linearGradient></defs><g clip-path="url(#clip0)" transform="translate(-961 0)"><path d="M1894.91 126.65C2046.71-34.9651 2300.83-42.9733 2462.52 108.765 2465.87 111.918 2469.18 115.13 2472.43 118.401L2472.43 118.401C2550.92 197.298 2658.61 240.098 2769.84 236.595L2769.84 236.595C2991.5 229.505 3176.96 403.377 3184.04 624.946 3184.19 629.642 3184.26 634.34 3184.24 639.041L3184.24 639.041C3183.93 750.308 3229.82 856.711 3310.95 932.853L3310.95 932.853C3472.64 1084.59 3480.64 1338.6 3328.84 1500.23 3325.69 1503.58 3322.48 1506.89 3319.2 1510.14L3319.2 1510.14C3240.28 1588.57 3197.46 1696.24 3200.96 1807.44L3200.96 1807.44C3208.07 2029.01 3034.14 2214.4 2812.48 2221.49 2807.78 2221.64 2803.06 2221.71 2798.35 2221.69L2798.35 2221.69C2687.07 2221.37 2580.63 2267.24 2504.43 2348.34L2504.43 2348.34C2352.62 2509.97 2098.51 2517.97 1936.82 2366.24 1933.47 2363.08 1930.16 2359.87 1926.9 2356.6L1926.9 2356.6C1848.42 2277.7 1740.71 2234.9 1629.47 2238.41L1629.47 2238.41C1407.82 2245.52 1222.37 2071.65 1215.28 1850.08 1215.12 1845.39 1215.05 1840.67 1215.06 1835.96L1215.06 1835.96C1215.38 1724.7 1169.49 1618.29 1088.35 1542.16L1088.35 1542.16C926.67 1390.41 918.665 1136.4 1070.47 974.781 1073.63 971.426 1076.84 968.12 1080.09 964.865L1080.09 964.865C1159.01 886.441 1201.84 778.776 1198.35 667.57L1198.35 667.57C1191.23 446.001 1365.18 260.622 1586.83 253.517 1591.53 253.366 1596.25 253.299 1600.94 253.312L1600.94 253.312C1712.24 253.643 1818.68 207.779 1894.88 126.661Z" fill="url(#fill1)" fill-rule="evenodd"/><g><g><g><path d="M1234.21 777.876C1234.21 688.019 1210.39 606.018 1162.75 531.879 1115.12 457.74 1051.24 402.243 971.127 365.391 954.888 357.812 942.981 346.184 935.4 330.508 927.82 314.832 926.741 298.852 932.152 282.569 938.648 265.246 950.295 252.796 967.1 245.218 983.905 237.639 1000.94 237.639 1018.22 245.218 1123.24 291.771 1207.14 362.966 1269.94 458.801 1332.73 554.636 1364.13 660.971 1364.13 777.811 1364.13 894.652 1332.73 1001.03 1269.94 1096.95 1207.14 1192.88 1123.24 1264.04 1018.22 1310.47 1000.9 1318.05 983.84 1318.05 967.035 1310.47 950.23 1302.89 938.603 1290.44 932.152 1273.12 926.741 1256.88 927.82 1240.92 935.4 1225.24 942.981 1209.57 954.888 1197.92 971.127 1190.3 1051.24 1153.48 1115.12 1098.01 1162.75 1023.87 1210.39 949.736 1234.21 867.714 1234.21 777.811M454.708 974.375 259.833 974.375C241.429 974.375 226.012 968.139 213.583 955.667 201.155 943.195 194.919 927.781 194.875 909.417L194.875 649.583C194.875 631.179 201.111 615.762 213.583 603.333 226.055 590.905 241.472 584.669 259.833 584.625L454.708 584.625 669.071 370.263C689.643 349.692 713.197 345.08 739.746 356.426 766.294 367.773 779.546 388.083 779.5 417.357L779.5 1141.64C779.5 1170.87 766.249 1191.19 739.746 1202.57 713.243 1213.96 689.682 1209.35 669.071 1188.74ZM1071.81 779.5C1071.81 824.971 1061.53 868.019 1040.96 908.637 1020.39 949.256 993.324 982.54 959.76 1008.48 948.931 1014.97 937.823 1015.25 926.436 1009.32 915.049 1003.39 909.371 993.908 909.417 980.871L909.417 574.881C909.417 561.89 915.114 552.427 926.501 546.495 937.888 540.562 948.976 540.822 959.76 547.274 993.324 574.34 1020.39 608.443 1040.96 649.583 1061.53 690.722 1071.81 734.029 1071.81 779.5M649.583 574.881 509.923 714.542 324.792 714.542 324.792 844.458 509.923 844.458 649.583 984.119Z" fill="#00629E" transform="matrix(1.00064 0 0 1 1420 458)"/></g></g></g></g></svg>